Coordinates
version=1
nRows=32
nColumns=12
inDegrees=yes

Units are S.I. units (second, meters, Newtons, ...)
Angles are in degrees

endheader
time	SC_y	SC_z	SC_x	AC_y	AC_z	AC_x	GH_y	GH_z	GH_yy	EL_x	PS_y
       0.0              -11.52          22.38           1.92          61.06         -17.41          14.23         -114.0          22.01         -154.6          58.49          35.82
   0.01454              -11.53          22.37          1.923          61.06         -17.41          14.23         -114.0          22.02         -154.6          58.49          35.83
   0.02908              -11.53          22.37          1.928          61.06          -17.4          14.22         -113.9          22.02         -154.6          58.49          35.85
   0.04362              -11.54          22.37          1.932          61.06          -17.4          14.22         -113.9          22.02         -154.6          58.49          35.87
   0.05816              -11.54          22.36          1.937          61.06          -17.4          14.21         -113.8          22.03         -154.6          58.49          35.88
    0.0727              -11.55          22.36          1.942          61.06         -17.39          14.21         -113.8          22.03         -154.6           58.5           35.9
   0.08724              -11.56          22.36          1.947          61.05         -17.39           14.2         -113.7          22.03         -154.6           58.5          35.93
    0.1018              -11.56          22.35          1.953          61.05         -17.38          14.19         -113.7          22.04         -154.6           58.5          35.95
    0.1163              -11.57          22.35          1.959          61.05         -17.38          14.19         -113.6          22.04         -154.6           58.5          35.97
    0.1309              -11.58          22.34          1.965          61.05         -17.37          14.18         -113.6          22.05         -154.6           58.5           36.0
    0.1454              -11.59          22.34          1.972          61.05         -17.37          14.17         -113.5          22.05         -154.5          58.51          36.03
    0.1599               -11.6          22.33           1.98          61.05         -17.36          14.16         -113.4          22.06         -154.5          58.51          36.06
    0.1745              -11.61          22.33          1.988          61.04         -17.36          14.15         -113.4          22.07         -154.5          58.51          36.09
     0.189              -11.62          22.32          1.997          61.04         -17.35          14.14         -113.3          22.07         -154.5          58.52          36.13
    0.2036              -11.63          22.32          2.006          61.04         -17.34          14.13         -113.2          22.08         -154.5          58.52          36.16
    0.2181              -11.65          22.31          2.016          61.04         -17.33          14.11         -113.1          22.09         -154.5          58.53           36.2
    0.2327              -11.66           22.3          2.027          61.03         -17.32           14.1         -113.0           22.1         -154.5          58.53          36.25
    0.2472              -11.68          22.29           2.04          61.03         -17.31          14.08         -112.9          22.11         -154.5          58.54           36.3
    0.2617              -11.69          22.28          2.053          61.03          -17.3          14.07         -112.7          22.12         -154.5          58.54          36.35
    0.2763              -11.71          22.27          2.067          61.02         -17.29          14.05         -112.6          22.13         -154.4          58.55          36.41
    0.2908              -11.73          22.26          2.083          61.02         -17.28          14.03         -112.4          22.14         -154.4          58.55          36.47
    0.3054              -11.76          22.25          2.101          61.02         -17.27          14.01         -112.3          22.16         -154.4          58.56          36.55
    0.3199              -11.78          22.24           2.12          61.01         -17.25          13.98         -112.1          22.17         -154.4          58.57          36.62
    0.3344              -11.81          22.22          2.142          61.01         -17.23          13.96         -111.9          22.19         -154.4          58.58          36.71
     0.349              -11.84           22.2          2.166           61.0         -17.21          13.93         -111.7          22.21         -154.4          58.59          36.81
    0.3635              -11.87          22.19          2.193          60.99         -17.19          13.89         -111.4          22.23         -154.3           58.6          36.91
    0.3781              -11.91          22.16          2.223          60.98         -17.17          13.86         -111.1          22.25         -154.3          58.61          37.03
    0.3926              -11.96          22.14          2.256          60.98         -17.14          13.81         -110.8          22.28         -154.3          58.63          37.17
    0.4071              -12.01          22.11          2.294          60.97         -17.11          13.77         -110.4          22.31         -154.2          58.64          37.32
    0.4217              -12.06          22.08          2.337          60.96         -17.08          13.71         -110.0          22.34         -154.2          58.66           37.5
    0.4362              -12.12          22.05          2.387          60.94         -17.04          13.65         -109.6          22.38         -154.1          58.68          37.69
    0.4508               -12.2          22.01          2.443          60.93         -16.99          13.58         -109.0          22.43         -154.1           58.7          37.92
